<?xml version="1.0" standalone="no"?>
<!DOCTYPE svg PUBLIC "-//W3C//DTD SVG 20010904//EN"
 "http://www.w3.org/TR/2001/REC-SVG-20010904/DTD/svg10.dtd">
<svg version="1.0" xmlns="http://www.w3.org/2000/svg"
 width="700.000000pt" height="700.000000pt" viewBox="0 0 700.000000 700.000000"
 preserveAspectRatio="xMidYMid meet">
<metadata>
Created by potrace 1.14, written by Peter Selinger 2001-2017
</metadata>
<g transform="translate(0.000000,700.000000) scale(0.100000,-0.100000)"
fill="#000000" stroke="none">
<path d="M3278 6995 c-1 -1 -41 -6 -87 -9 -202 -16 -441 -61 -651 -121 -131
-38 -370 -122 -385 -136 -5 -5 -14 -9 -21 -9 -21 0 -263 -120 -389 -193 -103
-60 -265 -165 -315 -204 -8 -6 -51 -40 -95 -74 -598 -466 -1042 -1150 -1229
-1894 -21 -84 -32 -138 -61 -295 -4 -21 -18 -121 -21 -145 -26 -246 -26 -683
0 -822 2 -10 7 -43 10 -74 4 -31 9 -67 11 -80 3 -13 7 -37 9 -54 11 -75 62
-283 103 -415 121 -392 320 -781 554 -1085 21 -27 42 -54 46 -60 89 -116 310
-347 442 -462 398 -346 888 -607 1393 -742 135 -36 307 -72 413 -86 22 -2 56
-7 75 -10 193 -27 627 -27 848 1 285 35 701 145 909 240 28 13 54 24 58 24 3
0 59 26 123 57 481 236 890 561 1212 963 334 417 599 978 695 1470 17 88 35
194 40 235 4 28 8 61 11 75 19 109 26 541 10 725 -4 55 -9 102 -11 105 -2 3
-6 30 -9 60 -3 30 -8 64 -10 75 -2 11 -11 61 -21 110 -102 547 -347 1073 -713
1532 -91 113 -351 381 -462 475 -302 256 -683 477 -1060 615 -175 64 -449 138
-585 158 -22 3 -65 10 -96 16 -31 5 -81 12 -110 15 -30 3 -67 8 -84 10 -34 6
-541 14 -547 9z m477 -499 c121 -11 143 -15 350 -51 74 -14 301 -78 401 -113
730 -262 1324 -787 1674 -1481 149 -295 260 -659 295 -961 4 -30 9 -68 11 -85
9 -58 11 -471 3 -555 -10 -98 -18 -166 -24 -195 -3 -11 -7 -36 -9 -55 -3 -19
-12 -69 -21 -110 -9 -41 -18 -84 -20 -95 -10 -48 -76 -258 -109 -350 -78 -208
-278 -577 -390 -717 -11 -14 -32 -41 -46 -59 -86 -114 -294 -339 -350 -379
l-25 -18 -2 67 c-5 139 -57 330 -130 476 -116 229 -322 434 -553 550 -131 65
-240 100 -390 123 -25 4 -445 7 -935 7 -976 0 -942 2 -1132 -61 -314 -105
-590 -351 -732 -655 -36 -75 -82 -216 -96 -288 -9 -49 -22 -156 -24 -200 -1
-21 -13 -12 -92 65 -374 365 -650 827 -793 1329 -79 279 -109 497 -110 800 -1
193 8 387 19 404 1 3 6 33 9 66 12 112 87 415 133 539 49 133 94 238 153 356
58 117 153 279 196 337 13 17 24 36 24 41 0 6 3 12 8 14 4 2 36 41 72 88 356
468 860 829 1419 1016 117 40 318 93 406 108 149 26 235 37 325 42 58 4 106 7
107 8 6 5 306 -2 378 -8z m641 -4508 c148 -44 180 -58 264 -113 174 -113 297
-301 329 -502 5 -32 10 -148 10 -259 2 -181 0 -202 -16 -216 -33 -29 -327
-166 -465 -217 -156 -58 -314 -100 -478 -130 -220 -39 -291 -45 -540 -45 -277
0 -391 12 -640 65 -245 53 -498 145 -733 267 l-128 66 1 211 c1 228 12 307 56
416 89 220 288 392 511 443 37 9 79 17 93 20 41 6 1713 1 1736 -6z"/>
<path d="M3335 5489 c-22 -4 -53 -9 -70 -12 -159 -27 -329 -99 -482 -204 -92
-63 -259 -232 -316 -319 -101 -156 -172 -331 -201 -499 -14 -81 -15 -348 -1
-410 3 -16 11 -50 16 -75 49 -220 165 -426 339 -600 247 -248 527 -364 880
-365 167 0 260 14 400 62 530 180 875 687 846 1243 -3 63 -8 129 -11 145 -102
526 -479 915 -990 1021 -108 23 -322 29 -410 13z m313 -505 c360 -75 611 -392
598 -754 -4 -94 -7 -118 -27 -195 -39 -144 -162 -312 -299 -404 -298 -202
-695 -164 -949 90 -136 135 -210 307 -216 504 -6 171 32 308 125 445 168 248
478 375 768 314z"/>
</g>
</svg>
